<svg width="90" height="90" viewBox="0 0 90 90" fill="none" xmlns="http://www.w3.org/2000/svg">
<path d="M66.0721 63.102L63.5357 64.5762C63.1302 64.8117 62.9926 65.3316 63.2289 65.737C63.4641 66.1419 63.9832 66.2797 64.3897 66.0438L66.9261 64.5696C67.3315 64.3341 67.4692 63.8142 67.2329 63.4088C66.9974 63.0025 66.4767 62.8665 66.0721 63.102Z" fill="#FF602F"/>
<path d="M73.2418 25.8563L76.4357 21.0389C76.6314 20.7511 76.6936 20.3813 76.6098 19.9966C76.5045 19.5099 76.1828 19.0555 75.7716 18.8117C75.7701 18.8109 75.7685 18.8113 75.767 18.8105C75.7654 18.8096 75.7648 18.8077 75.7633 18.8068L67.5488 14.0667V9.93479C67.5488 9.46549 67.1691 9.08574 66.6998 9.08574C66.2305 9.08574 65.8507 9.46549 65.8507 9.93479V13.0868L60.4703 9.98205C60.1063 9.76316 59.6785 9.73414 59.2788 9.93645L59.1602 10.0054V5.09417C59.1602 4.62487 58.7805 4.24512 58.3112 4.24512C57.8419 4.24512 57.4621 4.62487 57.4621 5.09417V10.9921L53.2881 13.4175V8.50615C53.2881 8.03685 52.9084 7.6571 52.4391 7.6571C51.9698 7.6571 51.59 8.03685 51.59 8.50615V14.4043L47.4169 16.8291V11.9181C47.4169 11.4488 47.0371 11.0691 46.5678 11.0691C46.0985 11.0691 45.7188 11.4488 45.7188 11.9181V17.8159L41.5448 20.2413V15.3301C41.5448 14.8608 41.165 14.4811 40.6957 14.4811C40.2264 14.4811 39.8467 14.8608 39.8467 15.3301V21.2281L35.6735 23.653V18.7429C35.6735 18.2736 35.2938 17.8939 34.8245 17.8939C34.3552 17.8939 33.9754 18.2736 33.9754 18.7429V24.6398L29.8023 27.0647V22.1549C29.8023 21.6856 29.4225 21.3058 28.9532 21.3058C28.4839 21.3058 28.1042 21.6856 28.1042 22.1549V28.0515L23.9302 30.4768V25.5669C23.9302 25.0976 23.5504 24.7178 23.0811 24.7178C22.6118 24.7178 22.2321 25.0976 22.2321 25.5669V31.4635L14.0168 36.2373C13.6527 36.4477 13.286 37.082 13.5707 37.8558L16.7397 46.358C16.928 46.8629 17.0266 47.3604 17.025 47.7957L16.9727 68.8124C16.9719 69.1772 16.8981 69.4906 16.7596 69.6888L13.5467 74.5104C13.0805 75.2269 13.5151 76.322 14.2423 76.7424L29.5452 85.5771C29.9496 85.8103 30.3095 85.7986 30.6488 85.632C30.922 85.506 27.8985 87.2465 61.1668 67.9152C61.5723 67.6798 61.7107 67.1607 61.4744 66.7553C61.2373 66.349 60.7149 66.2105 60.3144 66.4476L30.988 83.4876L28.2609 76.1662L72.0205 50.731L74.7476 58.0607L68.9302 61.442C68.5247 61.6775 68.3863 62.1974 68.6226 62.602C68.8572 63.0075 69.3788 63.1434 69.7826 62.9096L75.9954 59.3003C76.517 58.9861 76.6853 58.307 76.4191 57.6868L73.2634 49.2013C73.071 48.6706 72.9732 48.1813 72.9732 47.7501L73.0295 26.7385C73.0295 26.7381 73.0295 26.7389 73.0295 26.7385C73.0295 26.7381 73.0295 26.7364 73.0295 26.736C73.0295 26.3612 73.1 26.0619 73.2418 25.8563ZM71.8372 24.9027C71.5818 25.2709 71.4218 25.7161 71.3604 26.2302C62.1314 31.5946 44.7064 41.7229 28.7513 50.9968C29.106 50.464 31.3361 47.1141 31.1936 47.3281C31.3855 47.0333 31.4021 46.4228 31.3006 46.1126L74.3645 21.0903L71.8372 24.9027ZM71.455 49.0956C67.7387 51.2556 32.7616 71.5851 27.7692 74.4868C27.7503 74.3417 27.7251 74.1933 27.725 74.0589C27.7245 73.4334 27.7728 55.6041 27.7783 53.5263L71.3273 28.2139L71.275 47.7477C71.275 48.1754 71.3356 48.6264 71.455 49.0956ZM23.0811 37.6593C23.5504 37.6593 23.9302 37.2796 23.9302 36.8103V32.44L28.1042 30.0144V33.3983C28.1042 33.8676 28.4839 34.2473 28.9532 34.2473C29.4225 34.2473 29.8023 33.8676 29.8023 33.3983V29.0276L33.9754 26.6025V29.9855C33.9754 30.4548 34.3552 30.8345 34.8245 30.8345C35.2938 30.8345 35.6735 30.4548 35.6735 29.9855V25.6157L39.8467 23.1905V26.5735C39.8467 27.0428 40.2264 27.4225 40.6957 27.4225C41.165 27.4225 41.5448 27.0428 41.5448 26.5735V22.2037L45.7188 19.7781V23.1615C45.7188 23.6308 46.0985 24.0106 46.5678 24.0106C47.0371 24.0106 47.4169 23.6308 47.4169 23.1615V18.7913L51.59 16.3661V19.7487C51.59 20.218 51.9698 20.5977 52.4391 20.5977C52.9084 20.5977 53.2881 20.218 53.2881 19.7487V15.3793L57.4621 12.9538V16.3367C57.4621 16.806 57.8419 17.1858 58.3112 17.1858C58.7805 17.1858 59.1602 16.806 59.1602 16.3367V11.967L59.8335 11.5757L65.8507 15.0478V21.1782C65.8507 21.6475 66.2305 22.0272 66.6998 22.0272C67.1691 22.0272 67.5488 21.6475 67.5488 21.1782V16.0276L73.6439 19.5447L30.0777 44.8594L16.2731 36.8897L22.2321 33.4269V36.8103C22.2321 37.2796 22.6118 37.6593 23.0811 37.6593ZM15.1187 75.2135L18.1609 70.6473C18.4926 70.1747 18.6684 69.542 18.6708 68.8174L18.7231 47.8007C18.7247 47.1639 18.5896 46.46 18.3317 45.7651L15.613 38.4697L29.5264 46.5056C29.5613 46.5412 29.5833 46.59 29.6235 46.6185C29.501 46.8026 26.3633 51.5196 26.5603 51.2235C26.4464 51.3982 26.0805 52.2127 26.0777 53.0319C26.0515 63.5799 26.0517 63.4884 26.0255 74.0394C26.0238 74.6836 26.1548 75.3702 26.4168 76.0833L29.1298 83.3699L15.1187 75.2135Z" fill="#FF602F"/>
<path d="M60.8285 25.4393C61.2979 25.4393 61.6776 25.0595 61.6776 24.5902V13.3469C61.6776 12.8776 61.2979 12.4978 60.8285 12.4978C60.3592 12.4978 59.9795 12.8776 59.9795 13.3469V24.5902C59.9795 25.0595 60.3592 25.4393 60.8285 25.4393Z" fill="#FF602F"/>
<path d="M54.9575 28.8513C55.4268 28.8513 55.8065 28.4715 55.8065 28.0022V16.7597C55.8065 16.2904 55.4268 15.9106 54.9575 15.9106C54.4882 15.9106 54.1084 16.2904 54.1084 16.7597V28.0022C54.1084 28.4715 54.4882 28.8513 54.9575 28.8513Z" fill="#FF602F"/>
<path d="M49.0854 32.2632C49.5547 32.2632 49.9344 31.8834 49.9344 31.4141V20.1716C49.9344 19.7023 49.5547 19.3225 49.0854 19.3225C48.6161 19.3225 48.2363 19.7023 48.2363 20.1716V31.4141C48.2363 31.8834 48.6161 32.2632 49.0854 32.2632Z" fill="#FF602F"/>
<path d="M43.2138 35.6759C43.6831 35.6759 44.0629 35.2961 44.0629 34.8268V23.5834C44.0629 23.1141 43.6831 22.7344 43.2138 22.7344C42.7445 22.7344 42.3647 23.1141 42.3647 23.5834V34.8268C42.3647 35.2961 42.7445 35.6759 43.2138 35.6759Z" fill="#FF602F"/>
<path d="M37.3417 39.088C37.811 39.088 38.1908 38.7082 38.1908 38.2389V26.9955C38.1908 26.5262 37.811 26.1465 37.3417 26.1465C36.8724 26.1465 36.4927 26.5262 36.4927 26.9955V38.2389C36.4927 38.7082 36.8724 39.088 37.3417 39.088Z" fill="#FF602F"/>
<path d="M31.4706 42.5C31.9399 42.5 32.3197 42.1202 32.3197 41.6509V30.4084C32.3197 29.9391 31.9399 29.5593 31.4706 29.5593C31.0013 29.5593 30.6216 29.9391 30.6216 30.4084V41.6509C30.6216 42.1202 31.0013 42.5 31.4706 42.5Z" fill="#FF602F"/>
</svg>
