<svg width="100" height="100" viewBox="0 0 100 100" fill="none" xmlns="http://www.w3.org/2000/svg">
<path d="M17.8611 86.0866C17.8629 86.421 18.0398 86.7305 18.3291 86.8991C22.2629 89.2023 29.176 93.17 32.4063 95.1428C32.6816 95.3117 33.1493 95.2694 33.3829 95.1511L81.7761 67.2076C82.0746 67.0399 82.2589 66.7248 82.2571 66.3821C82.3463 33.5487 82.2291 21.9503 82.2239 13.9131C82.2234 13.8192 82.1794 13.7378 82.1527 13.6505C82.1433 13.6208 82.1411 13.5916 82.129 13.563C82.0843 13.4553 82.0184 13.369 81.9375 13.2843C81.9185 13.2637 81.9111 13.2345 81.8904 13.2156C81.8661 13.1933 81.8363 13.1763 81.8092 13.1565C81.7859 13.1401 81.7753 13.1121 81.7504 13.0977C81.7379 13.0906 81.7227 13.0936 81.71 13.087L67.5791 4.87249C67.2899 4.70297 66.9269 4.70297 66.6339 4.87064L54.578 11.8328C54.1265 12.0935 53.9718 12.6702 54.2334 13.1217C54.4914 13.5749 55.0699 13.7242 55.5214 13.4672L67.1038 6.7777L79.4021 13.9108C79.6288 13.7797 72.3794 17.9599 32.8118 40.8089C32.5896 40.6798 20.248 33.5043 20.5346 33.6709L44.4641 19.8443C44.9155 19.5836 45.0703 19.0059 44.8087 18.5554C44.5452 18.1012 43.9721 17.9492 43.5207 18.2099L18.1817 32.851C17.8867 33.0218 17.71 33.3359 17.71 33.6673C17.71 33.668 17.7104 33.6684 17.7104 33.6691C17.7104 33.6698 17.71 33.6703 17.71 33.6709L17.8611 86.0866ZM71.1447 52.3629L72.621 51.5108L72.6272 53.1485C72.1056 52.7952 71.34 52.4373 71.1447 52.3629ZM61.2038 54.1889C60.3302 54.6895 58.2042 56.1971 56.7415 57.1987L56.7121 50.1921C57.2001 49.9104 67.439 44.0001 66.9207 44.2994C66.921 44.4897 66.9351 52.5016 66.9342 51.9935C65.4602 52.2171 63.3423 52.9361 61.2038 54.1889ZM52.3605 59.7213C49.0272 61.4304 48.3624 61.0418 48.3703 58.1965L48.3591 55.0032C48.569 54.8824 55.0298 51.1638 54.8298 51.2789L54.8594 58.3331C54.0874 58.7796 53.2222 59.2784 52.3605 59.7213ZM46.1041 45.8099L50.2082 43.4411L50.2316 51.7421L48.3498 52.8282C48.349 52.7731 48.3383 52.7249 48.3369 52.6702C48.2583 49.528 47.2957 47.2177 46.1041 45.8099ZM66.9121 23.3005L66.9414 31.5823L56.7424 37.4787L56.7118 29.1888C57.0195 29.0111 67.1033 23.1898 66.9121 23.3005ZM80.4624 55.2944L76.1968 57.7607C76.1869 57.7383 76.1746 57.7209 76.1646 57.6985C75.7377 56.7387 75.1612 55.7397 74.5208 54.9341L74.5038 50.4242L80.4329 47.0022L80.4624 55.2944ZM52.1155 50.6548L52.092 42.3538C52.2833 42.2434 61.9987 36.6334 61.4165 36.9695L61.4399 45.2732L52.1155 50.6548ZM80.3389 36.5444L80.3684 44.8605L68.821 51.5252L68.8063 43.2127C75.9623 39.0845 77.7344 38.0507 80.3389 36.5444ZM63.3236 44.186L63.3003 35.8819C63.6704 35.6683 72.8162 30.3879 72.6249 30.4984L72.6483 38.8042L63.3236 44.186ZM80.3869 34.338C80.174 34.4608 74.3342 37.8313 74.5321 37.7171L74.5087 29.4108L80.374 26.0244L80.3869 34.338ZM54.8509 38.5723L44.9708 44.2843C44.97 44.0857 44.9359 35.45 44.938 35.9859L54.8276 30.2803L54.8509 38.5723ZM80.3647 23.8436L68.8266 30.5039L68.8026 22.2146L80.3408 15.5614L80.3647 23.8436ZM43.0545 37.0732C43.0553 37.267 43.0834 44.153 43.0817 43.7478C43.07 43.7437 43.0575 43.742 43.0457 43.7379C40.351 42.8214 37.3445 43.6372 34.8293 45.093C34.4792 45.292 34.1291 45.5085 33.7661 45.7508V42.437C34.2056 42.1832 43.2543 36.9579 43.0545 37.0732ZM19.6023 35.3108L31.8627 42.4397L32.0083 92.6756L19.746 85.5402L19.6023 35.3108ZM33.7882 48.0551C34.5416 47.4809 35.1862 47.0613 35.769 46.7302C41.4887 43.4143 46.4246 45.6729 46.4651 53.0078C46.4658 53.1978 46.4848 58.5339 46.4835 58.1937C46.4695 62.2263 48.4198 63.6797 52.5107 61.7558C57.4389 59.4445 59.7354 57.2016 62.1491 55.8223C65.976 53.5797 68.2631 53.8018 68.4597 53.7635C71.784 53.7922 73.6887 56.3089 74.8407 59.4411C75.7722 62.0285 76.2406 65.4005 76.3051 68.1283L33.9135 92.6028L33.7882 48.0551ZM78.1518 67.0823C78.1481 67.0153 78.1386 66.9227 78.1343 66.8525C77.9961 64.5705 77.6248 62.1188 76.963 59.9028C76.928 59.7857 76.9063 59.6684 76.8694 59.5517C77.0606 59.4411 80.5612 57.4171 80.3389 57.5456L80.3684 65.8349L78.1518 67.0823Z" fill="#FF602F"/>
<path d="M48.2027 17.6922L49.1641 17.1354L51.6483 15.7004C51.7629 15.6342 51.8575 15.5471 51.9318 15.4475C52.1556 15.1537 52.1956 14.7427 51.9984 14.4032C51.7349 13.9499 51.1564 13.7979 50.7086 14.0596L48.0403 15.6051L47.263 16.0542C47.2614 16.0551 47.2605 16.0569 47.2589 16.0578L47.2556 16.0597C47.1589 16.1158 47.0829 16.1921 47.0147 16.2731C47.0055 16.2842 46.9905 16.2908 46.9818 16.3023C46.7566 16.5963 46.7153 17.0083 46.9129 17.3486C47.088 17.6507 47.4049 17.8193 47.7292 17.8193C47.8913 17.8193 48.0535 17.7788 48.2027 17.6922Z" fill="#FF602F"/>
</svg>
